<?xml version="1.0" encoding="UTF-8" standalone="no"?>
<!-- Created with Inkscape (http://www.inkscape.org/) -->

<svg
   xmlns:dc="http://purl.org/dc/elements/1.1/"
   xmlns:cc="http://creativecommons.org/ns#"
   xmlns:rdf="http://www.w3.org/1999/02/22-rdf-syntax-ns#"
   xmlns:svg="http://www.w3.org/2000/svg"
   xmlns="http://www.w3.org/2000/svg"
   xmlns:sodipodi="http://sodipodi.sourceforge.net/DTD/sodipodi-0.dtd"
   xmlns:inkscape="http://www.inkscape.org/namespaces/inkscape"
   width="163.89189mm"
   height="52.096409mm"
   viewBox="0 0 163.89189 52.09641"
   version="1.1"
   id="svg8"
   inkscape:version="0.92.5 (2060ec1f9f, 2020-04-08)"
   sodipodi:docname="logo-bcau.svg"
   inkscape:export-filename="/home/jwenger/Documents/professional/scientific-community/conferences/bcau-workshop/logo-bcau.png"
   inkscape:export-xdpi="255"
   inkscape:export-ydpi="255">
  <defs
     id="defs2" />
  <sodipodi:namedview
     id="base"
     pagecolor="#ffffff"
     bordercolor="#666666"
     borderopacity="1.0"
     inkscape:pageopacity="0.0"
     inkscape:pageshadow="2"
     inkscape:zoom="2.8"
     inkscape:cx="293.21709"
     inkscape:cy="79.678591"
     inkscape:document-units="mm"
     inkscape:current-layer="layer4"
     showgrid="false"
     inkscape:window-width="2560"
     inkscape:window-height="1403"
     inkscape:window-x="1920"
     inkscape:window-y="0"
     inkscape:window-maximized="1"
     showguides="false" />
  <metadata
     id="metadata5">
    <rdf:RDF>
      <cc:Work
         rdf:about="">
        <dc:format>image/svg+xml</dc:format>
        <dc:type
           rdf:resource="http://purl.org/dc/dcmitype/StillImage" />
        <dc:title />
      </cc:Work>
    </rdf:RDF>
  </metadata>
  <g
     inkscape:label="Lines"
     inkscape:groupmode="layer"
     id="layer1"
     style="display:inline"
     transform="translate(-23.847186,-25.029911)">
    <path
       style="display:inline;fill:none;stroke:#4a3694;stroke-width:4.43358374;stroke-linecap:round;stroke-linejoin:miter;stroke-miterlimit:4;stroke-dasharray:none;stroke-opacity:0.31372549"
       d="m 26.620073,49.321105 c 18.45732,-1.019441 30.181105,-0.348286 42.72113,9.446251 12.540023,9.794537 20.630923,11.57036 29.903404,8.753779 18.783603,-5.705651 20.246053,-36.407823 37.883403,-35.724995 20.03044,0.775476 20.26596,18.14705 48.36345,18.341032"
       id="path4628-7"
       inkscape:connector-curvature="0"
       sodipodi:nodetypes="czssc" />
    <path
       style="display:inline;fill:none;stroke:#4a3694;stroke-width:4.43358374;stroke-linecap:round;stroke-linejoin:miter;stroke-miterlimit:4;stroke-dasharray:none;stroke-opacity:0.31372549"
       d="m 26.620073,49.321105 c 13.612571,-0.54621 18.642648,-3.070019 28.016122,-3.213593 25.079556,-6.087414 30.803663,8.617394 48.469425,9.349047 11.69947,0.277146 15.82715,-6.157872 31.82705,-13.988188 15.99991,-7.830317 33.82507,8.389934 50.55879,8.668801"
       id="path4628-2-6-5"
       inkscape:connector-curvature="0"
       sodipodi:nodetypes="ccczc" />
    <path
       style="display:inline;fill:none;stroke:#4a3694;stroke-width:4.43358374;stroke-linecap:round;stroke-linejoin:miter;stroke-miterlimit:4;stroke-dasharray:none;stroke-opacity:0.31372549"
       d="m 26.620073,49.321105 c 27.225164,0.334807 43.229006,-31.000534 80.164897,6.287737 12.84998,12.972568 24.72211,20.280771 39.90994,8.364626 15.18782,-11.916145 32.56263,-13.904128 38.79655,-13.836296"
       id="path4628-3-3"
       inkscape:connector-curvature="0"
       sodipodi:nodetypes="cszc" />
    <path
       style="display:inline;fill:none;stroke:#4a3694;stroke-width:4.43358374;stroke-linecap:round;stroke-linejoin:miter;stroke-miterlimit:4;stroke-dasharray:none;stroke-opacity:0.31372549"
       d="m 26.719809,49.321105 c 27.22517,0.334807 35.711422,-31.361396 70.543197,-10.550243 20.091584,12.004242 38.085594,18.27625 53.807954,10.235513 15.72236,-8.040737 28.28632,1.062965 34.52024,1.130797"
       id="path4628-3-3-3"
       inkscape:connector-curvature="0"
       sodipodi:nodetypes="cszc" />
    <path
       style="display:inline;fill:none;stroke:#4a3694;stroke-width:4.43400002;stroke-linecap:round;stroke-linejoin:miter;stroke-miterlimit:4;stroke-dasharray:none;stroke-opacity:0.31372549"
       d="m 26.719809,49.321105 c 27.225166,0.334807 35.906339,43.532968 67.736867,4.95139 16.644534,-20.174727 31.938394,-20.210563 50.600724,-10.87878 18.66233,9.331783 34.29988,6.675625 40.5338,6.743457"
       id="path4628-3-3-2"
       inkscape:connector-curvature="0"
       sodipodi:nodetypes="cszc" />
  </g>
  <g
     inkscape:groupmode="layer"
     id="layer4"
     inkscape:label="Text"
     style="display:inline"
     transform="translate(-23.847186,-25.029911)">
    <path
       d="m 45.570589,26.611573 c 4.1894,0 7.30963,1.04113 9.36069,3.123389 2.051061,2.082259 3.076591,5.159374 3.076591,9.231347 0,2.174804 -0.501855,4.095109 -1.505566,5.760916 -1.003711,1.619535 -2.487456,2.892026 -4.451237,3.817475 -1.963781,0.879176 -4.385778,1.318764 -7.265991,1.318764 l 0.261838,-3.123389 c 1.352827,0 2.902032,0.208226 4.647615,0.624678 1.745583,0.370179 3.425707,1.064266 5.040372,2.082259 1.658304,0.971721 3.011131,2.359893 4.058481,4.164517 1.09099,1.758352 1.636485,4.0257 1.636485,6.802045 0,3.053979 -0.480036,5.55269 -1.440107,7.496132 -0.916431,1.943441 -2.13834,3.447295 -3.665725,4.511561 -1.527385,1.064265 -3.16387,1.804624 -4.909453,2.221076 -1.745583,0.370179 -3.425707,0.555269 -5.040372,0.555269 H 29.074826 c -1.134629,0 -2.0947,-0.393316 -2.880212,-1.179947 -0.741873,-0.832903 -1.11281,-1.850897 -1.11281,-3.05398 V 30.8455 c 0,-1.203083 0.370937,-2.19794 1.11281,-2.984571 0.785512,-0.832904 1.745583,-1.249356 2.880212,-1.249356 z M 44.39232,34.801791 H 32.740551 l 0.850972,-1.110538 v 19.573233 l -0.785512,-7.634949 h 11.782687 c 1.265548,0 2.400177,-0.439588 3.403887,-1.318764 1.003711,-0.879175 1.505566,-2.151667 1.505566,-3.817474 0,-1.989714 -0.480035,-3.424159 -1.440106,-4.303335 -0.916431,-0.925449 -2.13834,-1.388173 -3.665725,-1.388173 z m 0.523675,19.017964 H 33.002389 l 0.589134,-0.555269 v 14.64522 L 32.936929,67.21562 H 45.37421 c 2.007421,0 3.600266,-0.555269 4.778535,-1.665808 1.178269,-1.15681 1.767403,-2.868889 1.767403,-5.136238 0,-2.082258 -0.392756,-3.586111 -1.178269,-4.51156 -0.785513,-0.925448 -1.723764,-1.503853 -2.814753,-1.735216 -1.090989,-0.231362 -2.0947,-0.347043 -3.011131,-0.347043 z"
       style="font-style:normal;font-variant:normal;font-weight:bold;font-stretch:normal;font-size:160px;line-height:0;font-family:Quicksand;-inkscape-font-specification:'Quicksand Bold';text-align:center;letter-spacing:0px;word-spacing:0px;text-anchor:middle;fill:#200059;fill-opacity:1;stroke:#ffffff;stroke-width:2.46923876;stroke-linecap:round;stroke-linejoin:round;stroke-miterlimit:4;stroke-dasharray:none;stroke-opacity:1;paint-order:stroke fill markers"
       id="path826"
       inkscape:connector-curvature="0"
       sodipodi:nodetypes="ssscccccccscscsscsscsssccccssscssccccscssss" />
    <path
       d="m 100.03271,28.971467 q 1.70194,0.902312 1.96378,2.845754 0.32729,1.943441 -0.91643,3.53984 -0.85098,1.249355 -2.225622,1.388172 -1.309188,0.138817 -2.683835,-0.555269 -1.571025,-0.763495 -3.338428,-1.179947 -1.701944,-0.416451 -3.600266,-0.416451 -3.534806,0 -6.349559,1.179946 -2.749294,1.179947 -4.713075,3.401023 -1.963781,2.151667 -3.011131,5.136238 -0.981891,2.984571 -0.981891,6.59382 0,4.233926 1.11281,7.357314 1.178268,3.123388 3.207509,5.205647 2.029241,2.082258 4.778534,3.123388 2.749294,0.971721 5.956803,0.971721 1.767404,0 3.534807,-0.347043 1.767403,-0.347044 3.403887,-1.249356 1.374647,-0.694086 2.683835,-0.48586 1.374642,0.208226 2.291082,1.457581 1.30918,1.735216 0.91643,3.609249 -0.3273,1.804624 -1.96378,2.637527 -1.701948,0.902313 -3.534811,1.52699 -1.767403,0.555269 -3.600265,0.832904 -1.832863,0.347043 -3.731185,0.347043 -4.713074,0 -8.967934,-1.596398 -4.1894,-1.596399 -7.527828,-4.719787 -3.272969,-3.123388 -5.17129,-7.773766 -1.898322,-4.719786 -1.898322,-10.897154 0,-5.344464 1.701943,-9.856025 1.767404,-4.511561 4.909454,-7.773766 3.207509,-3.331614 7.527828,-5.136239 4.320318,-1.874033 9.426149,-1.874033 2.880213,0 5.629507,0.694087 2.749293,0.694086 5.171294,2.01285 z"
       style="font-style:normal;font-variant:normal;font-weight:bold;font-stretch:normal;font-size:160px;line-height:0;font-family:Quicksand;-inkscape-font-specification:'Quicksand Bold';text-align:center;letter-spacing:0px;word-spacing:0px;text-anchor:middle;fill:#200059;fill-opacity:1;stroke:#ffffff;stroke-width:2.46923876;stroke-linecap:round;stroke-linejoin:round;stroke-miterlimit:4;stroke-dasharray:none;stroke-opacity:1;paint-order:stroke fill markers"
       id="path828"
       inkscape:connector-curvature="0" />
    <path
       d="M 125.82363,37.508728 111.68441,72.76831 q -0.45822,1.318764 -1.44011,2.082259 -0.91643,0.694086 -2.02924,0.694086 -1.7674,0 -2.61838,-1.04113 -0.85097,-1.041129 -0.85097,-2.568119 0,-0.624677 0.19638,-1.318764 l 16.29938,-41.506358 q 0.52368,-1.388172 1.57103,-2.151667 1.11281,-0.763495 2.35654,-0.624678 1.17827,0 2.16016,0.763495 1.04735,0.694086 1.50556,2.01285 l 16.10301,40.673455 q 0.32729,0.902312 0.32729,1.665807 0,1.874033 -1.17826,2.984571 -1.11281,1.110538 -2.48746,1.110538 -1.17827,0 -2.16016,-0.763495 -0.91643,-0.763495 -1.44011,-2.082259 L 123.92531,37.92518 Z m -12.10998,26.791729 3.60026,-7.981991 h 17.67403 l 1.24373,7.981991 z"
       style="font-style:normal;font-variant:normal;font-weight:bold;font-stretch:normal;font-size:160px;line-height:0;font-family:Quicksand;-inkscape-font-specification:'Quicksand Bold';text-align:center;letter-spacing:0px;word-spacing:0px;text-anchor:middle;fill:#200059;fill-opacity:1;stroke:#ffffff;stroke-width:2.46923876;stroke-linecap:round;stroke-linejoin:round;stroke-miterlimit:4;stroke-dasharray:none;stroke-opacity:1;paint-order:stroke fill markers"
       id="path830"
       inkscape:connector-curvature="0" />
    <path
       d="m 182.70781,26.542165 q 1.70194,0 2.74929,1.249355 1.04735,1.179947 1.04735,2.984571 v 25.125923 q 0,5.760915 -2.35654,10.203067 -2.29108,4.442153 -6.34956,6.940863 -4.05848,2.498711 -9.42615,2.498711 -5.36767,0 -9.49161,-2.498711 -4.05848,-2.49871 -6.41501,-6.940863 -2.29108,-4.442152 -2.29108,-10.203067 V 30.776091 q 0,-1.804624 1.17827,-2.984571 1.17826,-1.249355 3.01113,-1.249355 1.50556,0 2.68383,1.249355 1.24373,1.179947 1.24373,2.984571 v 25.125923 q 0,3.470431 1.37465,6.03855 1.4401,2.49871 3.73118,3.886883 2.35654,1.388173 4.97491,1.388173 2.81476,0 5.23675,-1.388173 2.422,-1.388173 3.92757,-3.886883 1.50556,-2.568119 1.50556,-6.03855 V 30.776091 q 0,-1.804624 0.98189,-2.984571 0.98189,-1.249355 2.68384,-1.249355 z"
       style="font-style:normal;font-variant:normal;font-weight:bold;font-stretch:normal;font-size:160px;line-height:0;font-family:Quicksand;-inkscape-font-specification:'Quicksand Bold';text-align:center;letter-spacing:0px;word-spacing:0px;text-anchor:middle;fill:#200059;fill-opacity:1;stroke:#ffffff;stroke-width:2.46923876;stroke-linecap:round;stroke-linejoin:round;stroke-miterlimit:4;stroke-dasharray:none;stroke-opacity:1;paint-order:stroke fill markers"
       id="path832"
       inkscape:connector-curvature="0" />
  </g>
</svg>
