<?xml version="1.0" encoding="UTF-8" standalone="no"?>
<!-- Created with Inkscape (http://www.inkscape.org/) -->

<svg
   xmlns:dc="http://purl.org/dc/elements/1.1/"
   xmlns:cc="http://creativecommons.org/ns#"
   xmlns:rdf="http://www.w3.org/1999/02/22-rdf-syntax-ns#"
   xmlns:svg="http://www.w3.org/2000/svg"
   xmlns="http://www.w3.org/2000/svg"
   xmlns:sodipodi="http://sodipodi.sourceforge.net/DTD/sodipodi-0.dtd"
   xmlns:inkscape="http://www.inkscape.org/namespaces/inkscape"
   width="163.89189mm"
   height="52.096409mm"
   viewBox="0 0 163.89189 52.09641"
   version="1.1"
   id="svg8"
   inkscape:version="0.92.5 (2060ec1f9f, 2020-04-08)"
   sodipodi:docname="logo-bcau-wide.svg"
   inkscape:export-filename="/home/jwenger/Documents/professional/scientific-community/conferences/bcau-workshop/logo-bcau.png"
   inkscape:export-xdpi="255"
   inkscape:export-ydpi="255">
  <defs
     id="defs2" />
  <sodipodi:namedview
     id="base"
     pagecolor="#ffffff"
     bordercolor="#666666"
     borderopacity="1.0"
     inkscape:pageopacity="0.0"
     inkscape:pageshadow="2"
     inkscape:zoom="2.8"
     inkscape:cx="255.61372"
     inkscape:cy="75.960723"
     inkscape:document-units="mm"
     inkscape:current-layer="layer4"
     showgrid="false"
     inkscape:window-width="2560"
     inkscape:window-height="1403"
     inkscape:window-x="1920"
     inkscape:window-y="0"
     inkscape:window-maximized="1"
     showguides="false" />
  <metadata
     id="metadata5">
    <rdf:RDF>
      <cc:Work
         rdf:about="">
        <dc:format>image/svg+xml</dc:format>
        <dc:type
           rdf:resource="http://purl.org/dc/dcmitype/StillImage" />
        <dc:title />
      </cc:Work>
    </rdf:RDF>
  </metadata>
  <g
     inkscape:label="Lines"
     inkscape:groupmode="layer"
     id="layer1"
     style="display:inline"
     transform="translate(-23.847186,-25.029911)">
    <path
       style="display:inline;fill:none;stroke:#4a3694;stroke-width:4.43358374;stroke-linecap:round;stroke-linejoin:miter;stroke-miterlimit:4;stroke-dasharray:none;stroke-opacity:0.31372549"
       d="m 26.620073,49.321105 c 18.45732,-1.019441 30.181105,-0.348286 42.72113,9.446251 12.540023,9.794537 20.630923,11.57036 29.903404,8.753779 18.783603,-5.705651 20.246053,-36.407823 37.883403,-35.724995 20.03044,0.775476 20.26596,18.14705 48.36345,18.341032"
       id="path4628-7"
       inkscape:connector-curvature="0"
       sodipodi:nodetypes="czssc" />
    <path
       style="display:inline;fill:none;stroke:#4a3694;stroke-width:4.43358374;stroke-linecap:round;stroke-linejoin:miter;stroke-miterlimit:4;stroke-dasharray:none;stroke-opacity:0.31372549"
       d="m 26.620073,49.321105 c 13.612571,-0.54621 18.642648,-3.070019 28.016122,-3.213593 25.079556,-6.087414 30.803663,8.617394 48.469425,9.349047 11.69947,0.277146 15.82715,-6.157872 31.82705,-13.988188 15.99991,-7.830317 33.82507,8.389934 50.55879,8.668801"
       id="path4628-2-6-5"
       inkscape:connector-curvature="0"
       sodipodi:nodetypes="ccczc" />
    <path
       style="display:inline;fill:none;stroke:#4a3694;stroke-width:4.43358374;stroke-linecap:round;stroke-linejoin:miter;stroke-miterlimit:4;stroke-dasharray:none;stroke-opacity:0.31372549"
       d="m 26.620073,49.321105 c 27.225164,0.334807 43.229006,-31.000534 80.164897,6.287737 12.84998,12.972568 24.72211,20.280771 39.90994,8.364626 15.18782,-11.916145 32.56263,-13.904128 38.79655,-13.836296"
       id="path4628-3-3"
       inkscape:connector-curvature="0"
       sodipodi:nodetypes="cszc" />
    <path
       style="display:inline;fill:none;stroke:#4a3694;stroke-width:4.43358374;stroke-linecap:round;stroke-linejoin:miter;stroke-miterlimit:4;stroke-dasharray:none;stroke-opacity:0.31372549"
       d="m 26.719809,49.321105 c 27.22517,0.334807 35.711422,-31.361396 70.543197,-10.550243 20.091584,12.004242 38.085594,18.27625 53.807954,10.235513 15.72236,-8.040737 28.28632,1.062965 34.52024,1.130797"
       id="path4628-3-3-3"
       inkscape:connector-curvature="0"
       sodipodi:nodetypes="cszc" />
    <path
       style="display:inline;fill:none;stroke:#4a3694;stroke-width:4.43400002;stroke-linecap:round;stroke-linejoin:miter;stroke-miterlimit:4;stroke-dasharray:none;stroke-opacity:0.31372549"
       d="m 26.719809,49.321105 c 27.225166,0.334807 35.906339,43.532968 67.736867,4.95139 16.644534,-20.174727 31.938394,-20.210563 50.600724,-10.87878 18.66233,9.331783 34.29988,6.675625 40.5338,6.743457"
       id="path4628-3-3-2"
       inkscape:connector-curvature="0"
       sodipodi:nodetypes="cszc" />
  </g>
  <g
     inkscape:groupmode="layer"
     id="layer4"
     inkscape:label="Text"
     style="display:inline"
     transform="translate(-23.847186,-25.029911)">
    <path
       d="m 71.337217,39.375971 c 2.218841,0 3.871419,0.551415 4.957726,1.654246 1.086306,1.10283 1.629459,2.732568 1.629459,4.889215 0,1.151844 -0.265803,2.168899 -0.797402,3.051164 -0.53159,0.857756 -1.317428,1.531708 -2.357515,2.021856 -1.040079,0.465639 -2.322843,0.698459 -3.848301,0.698459 l 0.138684,-1.654246 c 0.716501,0 1.537004,0.110283 2.461526,0.330849 0.924513,0.196058 1.814362,0.563669 2.669538,1.102831 0.878286,0.514654 1.594787,1.249874 2.149503,2.20566 0.577818,0.931279 0.866731,2.132138 0.866731,3.602579 0,1.617484 -0.25424,2.94088 -0.762729,3.970189 -0.48537,1.029309 -1.132534,1.825797 -1.941482,2.389466 -0.808948,0.563669 -1.675688,0.955787 -2.600201,1.176352 -0.924513,0.196059 -1.814362,0.294089 -2.669538,0.294089 h -8.632675 c -0.600936,0 -1.10942,-0.208313 -1.525452,-0.624937 -0.392919,-0.441132 -0.58938,-0.980295 -0.58938,-1.617486 V 41.618394 c 0,-0.637191 0.196461,-1.164099 0.58938,-1.580724 0.416032,-0.441132 0.924516,-0.661699 1.525452,-0.661699 z m -0.624045,4.3378 h -6.171147 l 0.450702,-0.588177 V 53.4922 l -0.416033,-4.043711 h 6.240488 c 0.670274,0 1.27121,-0.23282 1.802808,-0.69846 0.53159,-0.465639 0.797393,-1.13959 0.797393,-2.021855 0,-1.053815 -0.25424,-1.813543 -0.762729,-2.279183 -0.48537,-0.490147 -1.132534,-0.73522 -1.941482,-0.73522 z M 70.99053,53.786288 H 64.680703 L 64.992727,53.4922 v 7.756573 l -0.346694,-0.36761 h 6.587183 c 1.063188,0 1.906809,-0.294088 2.530863,-0.882264 0.624045,-0.612684 0.936068,-1.519455 0.936068,-2.720315 0,-1.10283 -0.208012,-1.899318 -0.624045,-2.389466 -0.416033,-0.490146 -0.912959,-0.796488 -1.490785,-0.919025 -0.577826,-0.122536 -1.109416,-0.183805 -1.594787,-0.183805 z"
       style="font-style:normal;font-variant:normal;font-weight:bold;font-stretch:normal;font-size:160px;line-height:0;font-family:Quicksand;-inkscape-font-specification:'Quicksand Bold';text-align:center;letter-spacing:0px;word-spacing:0px;text-anchor:middle;fill:#200059;fill-opacity:1;stroke:#ffffff;stroke-width:1.30778718;stroke-linecap:round;stroke-linejoin:round;stroke-miterlimit:4;stroke-dasharray:none;stroke-opacity:1;paint-order:stroke fill markers"
       id="path826"
       inkscape:connector-curvature="0"
       sodipodi:nodetypes="ssscccccccscscsscsscsssccccssscssccccscssss" />
    <path
       d="m 100.18209,40.533944 q 0.9014,0.477893 1.04007,1.507201 0.17335,1.029309 -0.48536,1.874812 -0.4507,0.661699 -1.178757,0.73522 -0.69339,0.07353 -1.42145,-0.294088 -0.83207,-0.404371 -1.76813,-0.624937 -0.90141,-0.220566 -1.90682,-0.220566 -1.872148,0 -3.362932,0.624937 -1.456112,0.624938 -2.496191,1.80129 -1.040078,1.13959 -1.594795,2.720314 -0.520035,1.580724 -0.520035,3.492297 0,2.242422 0.589381,3.896667 0.624045,1.654245 1.698797,2.757076 1.074752,1.10283 2.530863,1.654245 1.456112,0.514654 3.154912,0.514654 0.93607,0 1.87214,-0.183805 0.93608,-0.183805 1.80281,-0.661699 0.72806,-0.367609 1.42145,-0.257326 0.728057,0.110283 1.213427,0.771981 0.69338,0.919026 0.48537,1.911573 -0.17335,0.955786 -1.04008,1.396918 -0.901407,0.477893 -1.872147,0.808742 -0.93608,0.294089 -1.90682,0.441133 -0.97074,0.183805 -1.97615,0.183805 -2.496193,0 -4.749707,-0.845504 -2.218841,-0.845503 -3.986975,-2.499749 -1.73347,-1.654245 -2.738876,-4.117233 -1.005414,-2.499749 -1.005414,-5.771478 0,-2.830598 0.901404,-5.220064 0.936077,-2.389466 2.600201,-4.117233 1.698797,-1.764529 3.986975,-2.720316 2.288178,-0.992547 4.992392,-0.992547 1.52545,0 2.98157,0.367611 1.45611,0.367609 2.738877,1.066069 z"
       style="font-style:normal;font-variant:normal;font-weight:bold;font-stretch:normal;font-size:160px;line-height:0;font-family:Quicksand;-inkscape-font-specification:'Quicksand Bold';text-align:center;letter-spacing:0px;word-spacing:0px;text-anchor:middle;fill:#200059;fill-opacity:1;stroke:#ffffff;stroke-width:1.30778718;stroke-linecap:round;stroke-linejoin:round;stroke-miterlimit:4;stroke-dasharray:none;stroke-opacity:1;paint-order:stroke fill markers"
       id="path828"
       inkscape:connector-curvature="0" />
    <path
       d="m 113.84178,45.134262 -7.48858,18.674594 q -0.24269,0.698459 -0.76273,1.102831 -0.48537,0.36761 -1.07475,0.36761 -0.93607,0 -1.38677,-0.551416 -0.45071,-0.551415 -0.45071,-1.360157 0,-0.330849 0.10401,-0.69846 l 8.63267,-21.983084 q 0.27736,-0.73522 0.83207,-1.139591 0.58938,-0.404371 1.2481,-0.330849 0.62404,0 1.14409,0.40437 0.5547,0.36761 0.79739,1.06607 l 8.52867,21.541952 q 0.17333,0.477894 0.17333,0.882265 0,0.992548 -0.62404,1.580723 -0.58937,0.588177 -1.31744,0.588177 -0.62404,0 -1.14409,-0.404372 -0.48537,-0.40437 -0.76273,-1.10283 l -7.4539,-18.417266 z m -6.41384,14.189751 1.90682,-4.227516 h 9.36073 l 0.65872,4.227516 z"
       style="font-style:normal;font-variant:normal;font-weight:bold;font-stretch:normal;font-size:160px;line-height:0;font-family:Quicksand;-inkscape-font-specification:'Quicksand Bold';text-align:center;letter-spacing:0px;word-spacing:0px;text-anchor:middle;fill:#200059;fill-opacity:1;stroke:#ffffff;stroke-width:1.30778718;stroke-linecap:round;stroke-linejoin:round;stroke-miterlimit:4;stroke-dasharray:none;stroke-opacity:1;paint-order:stroke fill markers"
       id="path830"
       inkscape:connector-curvature="0" />
    <path
       d="m 143.96945,39.265689 q 0.90139,0 1.4561,0.661697 0.55472,0.624938 0.55472,1.580724 v 13.307486 q 0,3.051164 -1.2481,5.403869 -1.21343,2.352705 -3.36293,3.676101 -2.1495,1.323397 -4.99239,1.323397 -2.84289,0 -5.02705,-1.323397 -2.14951,-1.323396 -3.3976,-3.676101 -1.21342,-2.352705 -1.21342,-5.403869 V 41.50811 q 0,-0.955786 0.62404,-1.580724 0.62405,-0.661697 1.59479,-0.661697 0.79739,0 1.42144,0.661697 0.65872,0.624938 0.65872,1.580724 v 13.307486 q 0,1.838051 0.72806,3.198208 0.76272,1.323396 1.97615,2.058617 1.2481,0.73522 2.63487,0.73522 1.49078,0 2.77355,-0.73522 1.28277,-0.735221 2.08016,-2.058617 0.7974,-1.360157 0.7974,-3.198208 V 41.50811 q 0,-0.955786 0.52004,-1.580724 0.52004,-0.661697 1.42145,-0.661697 z"
       style="font-style:normal;font-variant:normal;font-weight:bold;font-stretch:normal;font-size:160px;line-height:0;font-family:Quicksand;-inkscape-font-specification:'Quicksand Bold';text-align:center;letter-spacing:0px;word-spacing:0px;text-anchor:middle;fill:#200059;fill-opacity:1;stroke:#ffffff;stroke-width:1.30778718;stroke-linecap:round;stroke-linejoin:round;stroke-miterlimit:4;stroke-dasharray:none;stroke-opacity:1;paint-order:stroke fill markers"
       id="path832"
       inkscape:connector-curvature="0" />
  </g>
</svg>
